<svg width="158" height="158" viewBox="0 0 158 158" fill="none" xmlns="http://www.w3.org/2000/svg">
<rect width="5" height="5" rx="2.5" fill="#FF673E"/>
<rect y="51" width="5" height="5" rx="2.5" fill="#FF673E"/>
<rect y="119" width="5" height="5" rx="2.5" fill="#FF673E"/>
<rect y="17" width="5" height="5" rx="2.5" fill="#FF673E"/>
<rect y="68" width="5" height="5" rx="2.5" fill="#FF673E"/>
<rect y="136" width="5" height="5" rx="2.5" fill="#FF673E"/>
<rect y="34" width="5" height="5" rx="2.5" fill="#FF673E"/>
<rect y="102" width="5" height="5" rx="2.5" fill="#FF673E"/>
<rect y="85" width="5" height="5" rx="2.5" fill="#FF673E"/>
<rect y="153" width="5" height="5" rx="2.5" fill="#FF673E"/>
<rect x="68" width="5" height="5" rx="2.5" fill="#FF673E"/>
<rect x="68" y="51" width="5" height="5" rx="2.5" fill="#FF673E"/>
<rect x="68" y="119" width="5" height="5" rx="2.5" fill="#FF673E"/>
<rect x="68" y="17" width="5" height="5" rx="2.5" fill="#FF673E"/>
<rect x="68" y="68" width="5" height="5" rx="2.5" fill="#FF673E"/>
<rect x="68" y="136" width="5" height="5" rx="2.5" fill="#FF673E"/>
<rect x="68" y="34" width="5" height="5" rx="2.5" fill="#FF673E"/>
<rect x="68" y="102" width="5" height="5" rx="2.5" fill="#FF673E"/>
<rect x="68" y="85" width="5" height="5" rx="2.5" fill="#FF673E"/>
<rect x="68" y="153" width="5" height="5" rx="2.5" fill="#FF673E"/>
<rect x="34" width="5" height="5" rx="2.5" fill="#FF673E"/>
<rect x="34" y="51" width="5" height="5" rx="2.5" fill="#FF673E"/>
<rect x="34" y="119" width="5" height="5" rx="2.5" fill="#FF673E"/>
<rect x="34" y="17" width="5" height="5" rx="2.5" fill="#FF673E"/>
<rect x="34" y="68" width="5" height="5" rx="2.5" fill="#FF673E"/>
<rect x="34" y="136" width="5" height="5" rx="2.5" fill="#FF673E"/>
<rect x="34" y="34" width="5" height="5" rx="2.5" fill="#FF673E"/>
<rect x="34" y="102" width="5" height="5" rx="2.5" fill="#FF673E"/>
<rect x="34" y="85" width="5" height="5" rx="2.5" fill="#FF673E"/>
<rect x="34" y="153" width="5" height="5" rx="2.5" fill="#FF673E"/>
<rect x="102" width="5" height="5" rx="2.5" fill="#FF673E"/>
<rect x="102" y="51" width="5" height="5" rx="2.5" fill="#FF673E"/>
<rect x="102" y="119" width="5" height="5" rx="2.5" fill="#FF673E"/>
<rect x="102" y="17" width="5" height="5" rx="2.5" fill="#FF673E"/>
<rect x="102" y="68" width="5" height="5" rx="2.5" fill="#FF673E"/>
<rect x="102" y="136" width="5" height="5" rx="2.5" fill="#FF673E"/>
<rect x="102" y="34" width="5" height="5" rx="2.5" fill="#FF673E"/>
<rect x="102" y="102" width="5" height="5" rx="2.5" fill="#FF673E"/>
<rect x="102" y="85" width="5" height="5" rx="2.5" fill="#FF673E"/>
<rect x="102" y="153" width="5" height="5" rx="2.5" fill="#FF673E"/>
<rect x="136" width="5" height="5" rx="2.5" fill="#FF673E"/>
<rect x="136" y="51" width="5" height="5" rx="2.5" fill="#FF673E"/>
<rect x="136" y="119" width="5" height="5" rx="2.5" fill="#FF673E"/>
<rect x="136" y="17" width="5" height="5" rx="2.5" fill="#FF673E"/>
<rect x="136" y="68" width="5" height="5" rx="2.5" fill="#FF673E"/>
<rect x="136" y="136" width="5" height="5" rx="2.5" fill="#FF673E"/>
<rect x="136" y="34" width="5" height="5" rx="2.5" fill="#FF673E"/>
<rect x="136" y="102" width="5" height="5" rx="2.5" fill="#FF673E"/>
<rect x="136" y="85" width="5" height="5" rx="2.5" fill="#FF673E"/>
<rect x="136" y="153" width="5" height="5" rx="2.5" fill="#FF673E"/>
<rect x="17" width="5" height="5" rx="2.5" fill="#FF673E"/>
<rect x="17" y="51" width="5" height="5" rx="2.5" fill="#FF673E"/>
<rect x="17" y="119" width="5" height="5" rx="2.5" fill="#FF673E"/>
<rect x="17" y="17" width="5" height="5" rx="2.5" fill="#FF673E"/>
<rect x="17" y="68" width="5" height="5" rx="2.5" fill="#FF673E"/>
<rect x="17" y="136" width="5" height="5" rx="2.5" fill="#FF673E"/>
<rect x="17" y="34" width="5" height="5" rx="2.5" fill="#FF673E"/>
<rect x="17" y="102" width="5" height="5" rx="2.5" fill="#FF673E"/>
<rect x="17" y="85" width="5" height="5" rx="2.5" fill="#FF673E"/>
<rect x="17" y="153" width="5" height="5" rx="2.5" fill="#FF673E"/>
<rect x="85" width="5" height="5" rx="2.5" fill="#FF673E"/>
<rect x="85" y="51" width="5" height="5" rx="2.5" fill="#FF673E"/>
<rect x="85" y="119" width="5" height="5" rx="2.5" fill="#FF673E"/>
<rect x="85" y="17" width="5" height="5" rx="2.5" fill="#FF673E"/>
<rect x="85" y="68" width="5" height="5" rx="2.5" fill="#FF673E"/>
<rect x="85" y="136" width="5" height="5" rx="2.5" fill="#FF673E"/>
<rect x="85" y="34" width="5" height="5" rx="2.5" fill="#FF673E"/>
<rect x="85" y="102" width="5" height="5" rx="2.5" fill="#FF673E"/>
<rect x="85" y="85" width="5" height="5" rx="2.5" fill="#FF673E"/>
<rect x="85" y="153" width="5" height="5" rx="2.5" fill="#FF673E"/>
<rect x="51" width="5" height="5" rx="2.5" fill="#FF673E"/>
<rect x="51" y="51" width="5" height="5" rx="2.5" fill="#FF673E"/>
<rect x="51" y="119" width="5" height="5" rx="2.5" fill="#FF673E"/>
<rect x="51" y="17" width="5" height="5" rx="2.5" fill="#FF673E"/>
<rect x="51" y="68" width="5" height="5" rx="2.5" fill="#FF673E"/>
<rect x="51" y="136" width="5" height="5" rx="2.5" fill="#FF673E"/>
<rect x="51" y="34" width="5" height="5" rx="2.5" fill="#FF673E"/>
<rect x="51" y="102" width="5" height="5" rx="2.5" fill="#FF673E"/>
<rect x="51" y="85" width="5" height="5" rx="2.5" fill="#FF673E"/>
<rect x="51" y="153" width="5" height="5" rx="2.5" fill="#FF673E"/>
<rect x="119" width="5" height="5" rx="2.5" fill="#FF673E"/>
<rect x="119" y="51" width="5" height="5" rx="2.5" fill="#FF673E"/>
<rect x="119" y="119" width="5" height="5" rx="2.5" fill="#FF673E"/>
<rect x="119" y="17" width="5" height="5" rx="2.5" fill="#FF673E"/>
<rect x="119" y="68" width="5" height="5" rx="2.5" fill="#FF673E"/>
<rect x="119" y="136" width="5" height="5" rx="2.5" fill="#FF673E"/>
<rect x="119" y="34" width="5" height="5" rx="2.5" fill="#FF673E"/>
<rect x="119" y="102" width="5" height="5" rx="2.5" fill="#FF673E"/>
<rect x="119" y="85" width="5" height="5" rx="2.5" fill="#FF673E"/>
<rect x="119" y="153" width="5" height="5" rx="2.5" fill="#FF673E"/>
<rect x="153" width="5" height="5" rx="2.5" fill="#FF673E"/>
<rect x="153" y="51" width="5" height="5" rx="2.5" fill="#FF673E"/>
<rect x="153" y="119" width="5" height="5" rx="2.5" fill="#FF673E"/>
<rect x="153" y="17" width="5" height="5" rx="2.5" fill="#FF673E"/>
<rect x="153" y="68" width="5" height="5" rx="2.5" fill="#FF673E"/>
<rect x="153" y="136" width="5" height="5" rx="2.5" fill="#FF673E"/>
<rect x="153" y="34" width="5" height="5" rx="2.5" fill="#FF673E"/>
<rect x="153" y="102" width="5" height="5" rx="2.5" fill="#FF673E"/>
<rect x="153" y="85" width="5" height="5" rx="2.5" fill="#FF673E"/>
<rect x="153" y="153" width="5" height="5" rx="2.5" fill="#FF673E"/>
</svg>
