<svg width="133" height="14" viewBox="0 0 133 14" fill="none" xmlns="http://www.w3.org/2000/svg">
<path d="M7.71094 5.32617L7.51953 6.39941H2.2832L2.47461 5.32617H7.71094ZM3.4248 1.04688L1.69531 11H0.40332L2.13281 1.04688H3.4248ZM9.56348 1.04688L7.83398 11H6.55566L8.27832 1.04688H9.56348ZM13.043 11.1367C12.5371 11.1276 12.0973 11.0273 11.7236 10.8359C11.3545 10.64 11.0514 10.3779 10.8145 10.0498C10.582 9.71712 10.4157 9.33887 10.3154 8.91504C10.2152 8.49121 10.1855 8.04688 10.2266 7.58203L10.2539 7.28809C10.2995 6.81413 10.4157 6.34928 10.6025 5.89355C10.7894 5.43327 11.0378 5.01855 11.3477 4.64941C11.6621 4.28027 12.0312 3.98861 12.4551 3.77441C12.8835 3.55566 13.3574 3.45312 13.877 3.4668C14.3919 3.47591 14.8203 3.58529 15.1621 3.79492C15.5039 4.00456 15.7705 4.28255 15.9619 4.62891C16.1579 4.9707 16.2855 5.35579 16.3447 5.78418C16.404 6.20801 16.4085 6.64323 16.3584 7.08984L16.2832 7.65723H10.917L11.0811 6.625L15.1758 6.63184L15.1963 6.52246C15.2419 6.19434 15.2236 5.8776 15.1416 5.57227C15.0596 5.26693 14.9092 5.01628 14.6904 4.82031C14.4762 4.61979 14.1868 4.51497 13.8223 4.50586C13.444 4.49219 13.1159 4.56966 12.8379 4.73828C12.5599 4.90234 12.3275 5.12565 12.1406 5.4082C11.9538 5.6862 11.8057 5.99154 11.6963 6.32422C11.5915 6.65234 11.5186 6.97363 11.4775 7.28809L11.4502 7.5752C11.4229 7.86686 11.432 8.16081 11.4775 8.45703C11.5231 8.75326 11.6097 9.02441 11.7373 9.27051C11.8695 9.51204 12.0518 9.71029 12.2842 9.86523C12.5166 10.0156 12.8037 10.0954 13.1455 10.1045C13.5602 10.1136 13.9316 10.0247 14.2598 9.83789C14.5924 9.64648 14.8955 9.40495 15.1689 9.11328L15.873 9.71484C15.6589 10.0293 15.4036 10.2936 15.1074 10.5078C14.8112 10.722 14.4876 10.8815 14.1367 10.9863C13.7858 11.0911 13.4212 11.1413 13.043 11.1367ZM19.7422 3.60352L18.457 11H17.2197L18.5049 3.60352H19.7422ZM18.751 1.66211C18.751 1.44792 18.8171 1.27018 18.9492 1.12891C19.0859 0.983073 19.2614 0.907878 19.4756 0.90332C19.6898 0.898763 19.8652 0.964844 20.002 1.10156C20.1432 1.23828 20.2116 1.41146 20.207 1.62109C20.207 1.83073 20.1364 2.00618 19.9951 2.14746C19.8584 2.28418 19.6852 2.35482 19.4756 2.35938C19.266 2.36393 19.0928 2.30241 18.9561 2.1748C18.8193 2.04264 18.751 1.87174 18.751 1.66211ZM23.625 1.04688L22.2988 8.19043H21.1777L22.3262 1.04688H23.625ZM20.6719 10.3848C20.6764 10.1706 20.7448 9.99284 20.877 9.85156C21.0137 9.70573 21.1891 9.63053 21.4033 9.62598C21.613 9.62142 21.7861 9.6875 21.9229 9.82422C22.0641 9.96094 22.1325 10.1341 22.1279 10.3438C22.1279 10.5534 22.0573 10.7288 21.916 10.8701C21.7793 11.0114 21.6061 11.0843 21.3965 11.0889C21.1868 11.0934 21.0137 11.0296 20.877 10.8975C20.7402 10.7653 20.6719 10.5944 20.6719 10.3848ZM34.8633 5.32617L34.6719 6.39941H29.4355L29.627 5.32617H34.8633ZM30.5771 1.04688L28.8477 11H27.5557L29.2852 1.04688H30.5771ZM36.7158 1.04688L34.9863 11H33.708L35.4307 1.04688H36.7158ZM37.3857 7.4248L37.4062 7.26758C37.4609 6.77083 37.584 6.29232 37.7754 5.83203C37.9714 5.37174 38.2288 4.96159 38.5479 4.60156C38.8669 4.24154 39.2451 3.95898 39.6826 3.75391C40.1201 3.54883 40.6077 3.45312 41.1455 3.4668C41.665 3.47591 42.1094 3.58757 42.4785 3.80176C42.8522 4.01595 43.153 4.30078 43.3809 4.65625C43.6133 5.00716 43.7751 5.40365 43.8662 5.8457C43.9574 6.28776 43.9801 6.74349 43.9346 7.21289L43.9209 7.37012C43.8617 7.86686 43.734 8.3431 43.5381 8.79883C43.3421 9.25456 43.0824 9.66016 42.7588 10.0156C42.4398 10.3711 42.0615 10.6514 41.624 10.8564C41.1865 11.057 40.7012 11.1504 40.168 11.1367C39.653 11.1276 39.2087 11.0182 38.835 10.8086C38.4658 10.5944 38.1673 10.3118 37.9395 9.96094C37.7116 9.61003 37.5521 9.21582 37.4609 8.77832C37.3698 8.34082 37.3447 7.88965 37.3857 7.4248ZM38.6367 7.26758L38.623 7.43164C38.5911 7.71875 38.5889 8.01725 38.6162 8.32715C38.6481 8.63704 38.721 8.92415 38.835 9.18848C38.9535 9.4528 39.1243 9.66927 39.3477 9.83789C39.571 10.0065 39.8604 10.0954 40.2158 10.1045C40.5941 10.1136 40.9268 10.0407 41.2139 9.88574C41.501 9.72624 41.7448 9.51204 41.9453 9.24316C42.1504 8.97428 42.3122 8.67578 42.4307 8.34766C42.5537 8.01953 42.6357 7.69368 42.6768 7.37012L42.6904 7.21289C42.7223 6.92578 42.7223 6.62728 42.6904 6.31738C42.6631 6.00293 42.5902 5.71126 42.4717 5.44238C42.3577 5.16895 42.1891 4.94792 41.9658 4.7793C41.7425 4.60612 41.4531 4.51497 41.0977 4.50586C40.7194 4.49219 40.3844 4.56738 40.0928 4.73145C39.8057 4.89095 39.5618 5.10742 39.3613 5.38086C39.1608 5.6543 38.999 5.95736 38.876 6.29004C38.7575 6.61816 38.6777 6.94401 38.6367 7.26758ZM46.8672 9.62598L49.7383 3.60352H50.5928L50.1963 4.88184L47.2842 11H46.4502L46.8672 9.62598ZM46.6689 3.60352L47.1816 9.83105L47.0791 11H46.2725L45.4727 3.60352H46.6689ZM51.29 9.63965L53.8125 3.60352H55.084L51.7207 11H50.8525L51.29 9.63965ZM50.7363 3.60352L51.5156 9.66016L51.4746 11H50.7158L49.8545 4.72461L49.9023 3.60352H50.7363ZM58.0986 0.5L57.9619 1.36816C57.9118 1.70085 57.8161 2.01758 57.6748 2.31836C57.5381 2.61914 57.3649 2.89941 57.1553 3.15918C56.9502 3.41895 56.7201 3.65137 56.4648 3.85645L55.7471 3.33691C55.984 3.04525 56.1868 2.74219 56.3555 2.42773C56.5286 2.10872 56.6494 1.76465 56.7178 1.39551L56.875 0.5H58.0986ZM61.5508 8.99707C61.5918 8.71452 61.5394 8.49349 61.3936 8.33398C61.2523 8.17448 61.0654 8.05371 60.833 7.97168C60.6051 7.88509 60.3818 7.81445 60.1631 7.75977C59.8896 7.69141 59.6139 7.6071 59.3359 7.50684C59.0579 7.40658 58.8027 7.27897 58.5703 7.12402C58.3424 6.96452 58.1602 6.76855 58.0234 6.53613C57.8913 6.29915 57.832 6.01204 57.8457 5.6748C57.8639 5.31022 57.9596 4.98893 58.1328 4.71094C58.3105 4.43294 58.5384 4.20052 58.8164 4.01367C59.099 3.82682 59.4066 3.68783 59.7393 3.59668C60.0719 3.50553 60.4023 3.46224 60.7305 3.4668C61.1953 3.47591 61.6169 3.57161 61.9951 3.75391C62.3779 3.9362 62.681 4.19824 62.9043 4.54004C63.1276 4.88184 63.2324 5.29655 63.2188 5.78418L61.9951 5.77734C62.0042 5.51758 61.9518 5.29427 61.8379 5.10742C61.724 4.92057 61.5667 4.77702 61.3662 4.67676C61.1657 4.57194 60.9378 4.51725 60.6826 4.5127C60.4411 4.50814 60.2041 4.54688 59.9717 4.62891C59.7393 4.70638 59.541 4.82943 59.377 4.99805C59.2129 5.16211 59.1126 5.3763 59.0762 5.64062C59.0488 5.83659 59.0785 5.99837 59.165 6.12598C59.2516 6.24902 59.3701 6.34928 59.5205 6.42676C59.6755 6.49967 59.8372 6.5612 60.0059 6.61133C60.179 6.6569 60.3363 6.69792 60.4775 6.73438C60.8512 6.83919 61.2204 6.97135 61.585 7.13086C61.9495 7.29036 62.2458 7.51139 62.4736 7.79395C62.7015 8.07194 62.804 8.4388 62.7812 8.89453C62.763 9.2819 62.6605 9.61914 62.4736 9.90625C62.2913 10.1888 62.0544 10.4235 61.7627 10.6104C61.4756 10.7926 61.1589 10.9271 60.8125 11.0137C60.4661 11.1003 60.1198 11.1413 59.7734 11.1367C59.2949 11.1276 58.8483 11.0296 58.4336 10.8428C58.0234 10.6514 57.6953 10.3779 57.4492 10.0225C57.2031 9.66243 57.0869 9.22493 57.1006 8.70996L58.3379 8.7168C58.3379 9.01302 58.3994 9.26367 58.5225 9.46875C58.6501 9.66927 58.8255 9.82194 59.0488 9.92676C59.2721 10.0316 59.5273 10.0863 59.8145 10.0908C60.056 10.0954 60.3021 10.0635 60.5527 9.99512C60.8079 9.92676 61.0267 9.81283 61.209 9.65332C61.3958 9.48926 61.5098 9.27051 61.5508 8.99707ZM71.7432 3.60352L71.5723 4.57422H67.6826L67.8535 3.60352H71.7432ZM69.4805 1.80566H70.7109L69.46 9.18164C69.4463 9.34115 69.4508 9.4847 69.4736 9.6123C69.4964 9.73991 69.5511 9.84245 69.6377 9.91992C69.7243 9.99284 69.8564 10.0316 70.0342 10.0361C70.1344 10.0361 70.2324 10.0293 70.3281 10.0156C70.4284 9.9974 70.5286 9.98145 70.6289 9.96777L70.54 11.0068C70.3942 11.0479 70.2438 11.0775 70.0889 11.0957C69.9385 11.1185 69.7881 11.1276 69.6377 11.123C69.2594 11.1185 68.9632 11.0228 68.749 10.8359C68.5348 10.6491 68.389 10.4076 68.3115 10.1113C68.234 9.8151 68.2113 9.49837 68.2432 9.16113L69.4805 1.80566ZM74.9492 0.5L73.124 11H71.8867L73.7119 0.5H74.9492ZM73.5479 7.02148L73.042 7.00781C73.1058 6.56576 73.222 6.13281 73.3906 5.70898C73.5638 5.2806 73.7894 4.89551 74.0674 4.55371C74.3499 4.21191 74.6849 3.94303 75.0723 3.74707C75.4642 3.54655 75.9108 3.45312 76.4121 3.4668C76.8086 3.47591 77.139 3.55339 77.4033 3.69922C77.6722 3.84049 77.8818 4.03418 78.0322 4.28027C78.1826 4.52637 78.2829 4.8112 78.333 5.13477C78.3831 5.45378 78.3877 5.79329 78.3467 6.15332L77.54 11H76.2959L77.1162 6.13281C77.1481 5.83659 77.1367 5.56999 77.082 5.33301C77.0319 5.09147 76.918 4.90007 76.7402 4.75879C76.5671 4.61296 76.3164 4.53548 75.9883 4.52637C75.6419 4.51725 75.3298 4.58333 75.0518 4.72461C74.7738 4.86589 74.5299 5.05957 74.3203 5.30566C74.1152 5.5472 73.9466 5.81836 73.8145 6.11914C73.6868 6.41536 73.598 6.71615 73.5479 7.02148ZM82.4961 11.1367C81.9902 11.1276 81.5505 11.0273 81.1768 10.8359C80.8076 10.64 80.5046 10.3779 80.2676 10.0498C80.0352 9.71712 79.8688 9.33887 79.7686 8.91504C79.6683 8.49121 79.6387 8.04688 79.6797 7.58203L79.707 7.28809C79.7526 6.81413 79.8688 6.34928 80.0557 5.89355C80.2425 5.43327 80.4909 5.01855 80.8008 4.64941C81.1152 4.28027 81.4844 3.98861 81.9082 3.77441C82.3366 3.55566 82.8105 3.45312 83.3301 3.4668C83.8451 3.47591 84.2734 3.58529 84.6152 3.79492C84.957 4.00456 85.2236 4.28255 85.415 4.62891C85.611 4.9707 85.7386 5.35579 85.7979 5.78418C85.8571 6.20801 85.8617 6.64323 85.8115 7.08984L85.7363 7.65723H80.3701L80.5342 6.625L84.6289 6.63184L84.6494 6.52246C84.695 6.19434 84.6768 5.8776 84.5947 5.57227C84.5127 5.26693 84.3623 5.01628 84.1436 4.82031C83.9294 4.61979 83.64 4.51497 83.2754 4.50586C82.8971 4.49219 82.569 4.56966 82.291 4.73828C82.013 4.90234 81.7806 5.12565 81.5938 5.4082C81.4069 5.6862 81.2588 5.99154 81.1494 6.32422C81.0446 6.65234 80.9717 6.97363 80.9307 7.28809L80.9033 7.5752C80.876 7.86686 80.8851 8.16081 80.9307 8.45703C80.9762 8.75326 81.0628 9.02441 81.1904 9.27051C81.3226 9.51204 81.5049 9.71029 81.7373 9.86523C81.9697 10.0156 82.2568 10.0954 82.5986 10.1045C83.0133 10.1136 83.3848 10.0247 83.7129 9.83789C84.0456 9.64648 84.3486 9.40495 84.6221 9.11328L85.3262 9.71484C85.112 10.0293 84.8568 10.2936 84.5605 10.5078C84.2643 10.722 83.9408 10.8815 83.5898 10.9863C83.2389 11.0911 82.8743 11.1413 82.4961 11.1367ZM92.3262 4.82031L91.2529 11H90.0156L91.3008 3.60352H92.5039L92.3262 4.82031ZM94.7256 3.54199L94.6094 4.73145C94.5137 4.71322 94.4157 4.69727 94.3154 4.68359C94.2197 4.66992 94.124 4.66309 94.0283 4.66309C93.7321 4.65853 93.4655 4.7041 93.2285 4.7998C92.9961 4.89095 92.7887 5.02083 92.6064 5.18945C92.4287 5.35807 92.276 5.55632 92.1484 5.78418C92.0254 6.01204 91.9274 6.25814 91.8545 6.52246L91.4648 6.72754C91.515 6.3584 91.597 5.98014 91.7109 5.59277C91.8294 5.2054 91.9912 4.84766 92.1963 4.51953C92.4059 4.19141 92.668 3.92708 92.9824 3.72656C93.3014 3.52604 93.6842 3.43262 94.1309 3.44629C94.2311 3.44629 94.3291 3.4554 94.4248 3.47363C94.5251 3.49186 94.6253 3.51465 94.7256 3.54199ZM97.6172 11.1367C97.1113 11.1276 96.6715 11.0273 96.2979 10.8359C95.9287 10.64 95.6257 10.3779 95.3887 10.0498C95.1562 9.71712 94.9899 9.33887 94.8896 8.91504C94.7894 8.49121 94.7598 8.04688 94.8008 7.58203L94.8281 7.28809C94.8737 6.81413 94.9899 6.34928 95.1768 5.89355C95.3636 5.43327 95.612 5.01855 95.9219 4.64941C96.2363 4.28027 96.6055 3.98861 97.0293 3.77441C97.4577 3.55566 97.9316 3.45312 98.4512 3.4668C98.9661 3.47591 99.3945 3.58529 99.7363 3.79492C100.078 4.00456 100.345 4.28255 100.536 4.62891C100.732 4.9707 100.86 5.35579 100.919 5.78418C100.978 6.20801 100.983 6.64323 100.933 7.08984L100.857 7.65723H95.4912L95.6553 6.625L99.75 6.63184L99.7705 6.52246C99.8161 6.19434 99.7979 5.8776 99.7158 5.57227C99.6338 5.26693 99.4834 5.01628 99.2646 4.82031C99.0505 4.61979 98.7611 4.51497 98.3965 4.50586C98.0182 4.49219 97.6901 4.56966 97.4121 4.73828C97.1341 4.90234 96.9017 5.12565 96.7148 5.4082C96.528 5.6862 96.3799 5.99154 96.2705 6.32422C96.1657 6.65234 96.0928 6.97363 96.0518 7.28809L96.0244 7.5752C95.9971 7.86686 96.0062 8.16081 96.0518 8.45703C96.0973 8.75326 96.1839 9.02441 96.3115 9.27051C96.4437 9.51204 96.626 9.71029 96.8584 9.86523C97.0908 10.0156 97.3779 10.0954 97.7197 10.1045C98.1344 10.1136 98.5059 10.0247 98.834 9.83789C99.1667 9.64648 99.4697 9.40495 99.7432 9.11328L100.447 9.71484C100.233 10.0293 99.9779 10.2936 99.6816 10.5078C99.3854 10.722 99.0618 10.8815 98.7109 10.9863C98.36 11.0911 97.9954 11.1413 97.6172 11.1367ZM103.954 5.10059L102.437 13.8438H101.192L102.97 3.60352H104.104L103.954 5.10059ZM108.404 7.19922L108.391 7.34277C108.331 7.78939 108.222 8.24056 108.062 8.69629C107.908 9.14746 107.696 9.5599 107.427 9.93359C107.158 10.3073 106.827 10.6058 106.436 10.8291C106.048 11.0524 105.592 11.1572 105.068 11.1436C104.608 11.1344 104.214 11.0342 103.886 10.8428C103.558 10.6468 103.293 10.3893 103.093 10.0703C102.892 9.74674 102.749 9.38672 102.662 8.99023C102.58 8.58919 102.553 8.17904 102.58 7.75977L102.676 7.00098C102.753 6.55436 102.883 6.11914 103.065 5.69531C103.252 5.26693 103.489 4.88184 103.776 4.54004C104.063 4.19824 104.403 3.93164 104.795 3.74023C105.191 3.54427 105.64 3.45312 106.142 3.4668C106.647 3.48047 107.058 3.60352 107.372 3.83594C107.691 4.0638 107.933 4.3623 108.097 4.73145C108.265 5.09603 108.37 5.49479 108.411 5.92773C108.452 6.35612 108.45 6.77995 108.404 7.19922ZM107.146 7.33594L107.167 7.18555C107.199 6.91211 107.206 6.62272 107.188 6.31738C107.174 6.01204 107.117 5.72721 107.017 5.46289C106.921 5.19401 106.768 4.97298 106.559 4.7998C106.354 4.62663 106.073 4.53548 105.718 4.52637C105.435 4.51725 105.166 4.5651 104.911 4.66992C104.66 4.77018 104.433 4.91374 104.228 5.10059C104.022 5.28288 103.847 5.49479 103.701 5.73633C103.555 5.97331 103.448 6.22396 103.38 6.48828L103.086 8.27246C103.081 8.59603 103.152 8.89681 103.298 9.1748C103.444 9.44824 103.642 9.66927 103.893 9.83789C104.148 10.0065 104.437 10.0954 104.761 10.1045C105.139 10.1136 105.467 10.0384 105.745 9.87891C106.028 9.71484 106.265 9.49609 106.456 9.22266C106.647 8.94466 106.8 8.6416 106.914 8.31348C107.028 7.98079 107.105 7.65495 107.146 7.33594ZM109.642 7.4248L109.662 7.26758C109.717 6.77083 109.84 6.29232 110.031 5.83203C110.227 5.37174 110.485 4.96159 110.804 4.60156C111.123 4.24154 111.501 3.95898 111.938 3.75391C112.376 3.54883 112.864 3.45312 113.401 3.4668C113.921 3.47591 114.365 3.58757 114.734 3.80176C115.108 4.01595 115.409 4.30078 115.637 4.65625C115.869 5.00716 116.031 5.40365 116.122 5.8457C116.213 6.28776 116.236 6.74349 116.19 7.21289L116.177 7.37012C116.118 7.86686 115.99 8.3431 115.794 8.79883C115.598 9.25456 115.338 9.66016 115.015 10.0156C114.696 10.3711 114.317 10.6514 113.88 10.8564C113.442 11.057 112.957 11.1504 112.424 11.1367C111.909 11.1276 111.465 11.0182 111.091 10.8086C110.722 10.5944 110.423 10.3118 110.195 9.96094C109.967 9.61003 109.808 9.21582 109.717 8.77832C109.626 8.34082 109.601 7.88965 109.642 7.4248ZM110.893 7.26758L110.879 7.43164C110.847 7.71875 110.845 8.01725 110.872 8.32715C110.904 8.63704 110.977 8.92415 111.091 9.18848C111.209 9.4528 111.38 9.66927 111.604 9.83789C111.827 10.0065 112.116 10.0954 112.472 10.1045C112.85 10.1136 113.183 10.0407 113.47 9.88574C113.757 9.72624 114.001 9.51204 114.201 9.24316C114.406 8.97428 114.568 8.67578 114.687 8.34766C114.81 8.01953 114.892 7.69368 114.933 7.37012L114.946 7.21289C114.978 6.92578 114.978 6.62728 114.946 6.31738C114.919 6.00293 114.846 5.71126 114.728 5.44238C114.614 5.16895 114.445 4.94792 114.222 4.7793C113.998 4.60612 113.709 4.51497 113.354 4.50586C112.975 4.49219 112.64 4.56738 112.349 4.73145C112.062 4.89095 111.818 5.10742 111.617 5.38086C111.417 5.6543 111.255 5.95736 111.132 6.29004C111.013 6.61816 110.934 6.94401 110.893 7.26758ZM119.383 4.82031L118.31 11H117.072L118.357 3.60352H119.561L119.383 4.82031ZM121.782 3.54199L121.666 4.73145C121.57 4.71322 121.472 4.69727 121.372 4.68359C121.276 4.66992 121.181 4.66309 121.085 4.66309C120.789 4.65853 120.522 4.7041 120.285 4.7998C120.053 4.89095 119.845 5.02083 119.663 5.18945C119.485 5.35807 119.333 5.55632 119.205 5.78418C119.082 6.01204 118.984 6.25814 118.911 6.52246L118.521 6.72754C118.572 6.3584 118.654 5.98014 118.768 5.59277C118.886 5.2054 119.048 4.84766 119.253 4.51953C119.463 4.19141 119.725 3.92708 120.039 3.72656C120.358 3.52604 120.741 3.43262 121.188 3.44629C121.288 3.44629 121.386 3.4554 121.481 3.47363C121.582 3.49186 121.682 3.51465 121.782 3.54199ZM126.321 3.60352L126.15 4.57422H122.261L122.432 3.60352H126.321ZM124.059 1.80566H125.289L124.038 9.18164C124.024 9.34115 124.029 9.4847 124.052 9.6123C124.075 9.73991 124.129 9.84245 124.216 9.91992C124.302 9.99284 124.435 10.0316 124.612 10.0361C124.713 10.0361 124.811 10.0293 124.906 10.0156C125.007 9.9974 125.107 9.98145 125.207 9.96777L125.118 11.0068C124.972 11.0479 124.822 11.0775 124.667 11.0957C124.517 11.1185 124.366 11.1276 124.216 11.123C123.838 11.1185 123.541 11.0228 123.327 10.8359C123.113 10.6491 122.967 10.4076 122.89 10.1113C122.812 9.8151 122.789 9.49837 122.821 9.16113L124.059 1.80566ZM129.657 8.19727L128.44 8.2041C128.481 7.81217 128.563 7.46582 128.687 7.16504C128.814 6.86426 128.98 6.58626 129.186 6.33105C129.391 6.07585 129.639 5.81836 129.931 5.55859C130.149 5.36263 130.366 5.16439 130.58 4.96387C130.799 4.76335 130.986 4.5446 131.141 4.30762C131.3 4.06608 131.4 3.78809 131.441 3.47363C131.473 3.20475 131.455 2.96094 131.387 2.74219C131.318 2.52344 131.195 2.34798 131.018 2.21582C130.84 2.08366 130.607 2.01302 130.32 2.00391C130.024 1.99479 129.757 2.04492 129.521 2.1543C129.284 2.26367 129.085 2.42318 128.926 2.63281C128.771 2.83789 128.664 3.08398 128.604 3.37109L127.374 3.37793C127.438 2.85384 127.611 2.40495 127.894 2.03125C128.176 1.65755 128.534 1.375 128.967 1.18359C129.404 0.98763 129.881 0.894206 130.396 0.90332C130.901 0.916992 131.334 1.03092 131.694 1.24512C132.059 1.45475 132.33 1.7487 132.508 2.12695C132.69 2.50521 132.758 2.94727 132.713 3.45312C132.672 3.89518 132.542 4.29395 132.323 4.64941C132.109 5.00488 131.845 5.33073 131.53 5.62695C131.22 5.92318 130.906 6.20345 130.587 6.46777C130.309 6.69564 130.097 6.95312 129.951 7.24023C129.81 7.52734 129.712 7.84635 129.657 8.19727ZM127.955 10.3848C127.96 10.1706 128.028 9.99284 128.16 9.85156C128.297 9.70573 128.472 9.63053 128.687 9.62598C128.901 9.62142 129.076 9.6875 129.213 9.82422C129.35 9.96094 129.416 10.1364 129.411 10.3506C129.411 10.5602 129.343 10.7357 129.206 10.877C129.069 11.0137 128.894 11.0843 128.68 11.0889C128.47 11.0934 128.297 11.0296 128.16 10.8975C128.023 10.7653 127.955 10.5944 127.955 10.3848Z" fill="white"/>
</svg>
